<?xml version="1.0"?>
<svg xmlns="http://www.w3.org/2000/svg" xmlns:xlink="http://www.w3.org/1999/xlink" version="1.1" viewBox="0 0 172 172" width="32px" height="32px"><g fill="none" fill-rule="nonzero" stroke="none" stroke-width="1" stroke-linecap="butt" stroke-linejoin="miter" stroke-miterlimit="10" stroke-dasharray="" stroke-dashoffset="0" font-family="none" font-weight="none" font-size="none" text-anchor="none" style="mix-blend-mode: normal"><path d="M0,172v-172h172v172z" fill="none"/><g fill="#3f3f3f"><g id="surface1"><path d="M75.25,10.75v26.875l10.75,10.75v-26.875h37.625v26.875h26.875v69.875h-43v10.75h53.75v-88.26758l-1.19678,-1.42773l-25.8252,-27.27393l-1.34375,-1.28076zM135.4458,26.37109l11.02295,11.67383h-11.02295zM10.75,43v118.25h86v-88.26758l-1.19678,-1.42773l-25.67822,-28.55469zM21.5,53.75h37.625v26.875h26.875v69.875h-64.5zM70.9458,58.62109l11.02295,11.67383h-11.02295zM107.5,64.5v10.75h32.25v-10.75zM107.5,86v10.75h32.25v-10.75zM32.25,96.75v10.75h43v-10.75zM32.25,118.25v10.75h43v-10.75z"/></g></g></g></svg>
