<?xml version="1.0"?>
<svg xmlns="http://www.w3.org/2000/svg" xmlns:xlink="http://www.w3.org/1999/xlink" version="1.1" viewBox="0 0 172 172" width="32px" height="32px"><g fill="none" fill-rule="nonzero" stroke="none" stroke-width="1" stroke-linecap="butt" stroke-linejoin="miter" stroke-miterlimit="10" stroke-dasharray="" stroke-dashoffset="0" font-family="none" font-weight="none" font-size="none" text-anchor="none" style="mix-blend-mode: normal"><path d="M0,172v-172h172v172z" fill="none"/><g fill="#3f3f3f"><g id="surface1"><path d="M48.375,21.5c-8.83935,0 -16.125,7.28565 -16.125,16.125v96.75c0,8.83935 7.28565,16.125 16.125,16.125h91.375v-129zM48.375,32.25h80.625v86h-80.625c-1.88965,0 -3.67432,0.39893 -5.375,1.00781v-81.63281c0,-3.04443 2.33057,-5.375 5.375,-5.375zM86,40.81641l-3.86328,3.69531l-21.5,21.5l7.72656,7.72656l12.26172,-12.26172v24.52344h10.75v-24.52344l12.26172,12.26172l7.72656,-7.72656l-21.5,-21.5zM80.625,91.375v5.375h10.75v-5.375zM80.625,102.125v5.375h10.75v-5.375zM48.375,129h80.625v10.75h-80.625c-3.04443,0 -5.375,-2.33057 -5.375,-5.375c0,-3.04443 2.33057,-5.375 5.375,-5.375z"/></g></g></g></svg>
