<svg fill="#000000" xmlns="http://www.w3.org/2000/svg" viewBox="0 0 32 32" width="32px" height="32px"><path d="M 5 6 C 3.355469 6 2 7.355469 2 9 L 2 23 C 2 24.644531 3.355469 26 5 26 L 27 26 C 28.644531 26 30 24.644531 30 23 L 30 9 C 30 7.355469 28.644531 6 27 6 Z M 5 8 L 11 8 L 11 11 L 13 11 L 13 8 L 27 8 C 27.566406 8 28 8.433594 28 9 L 28 15 L 20 15 L 20 17 L 28 17 L 28 23 C 28 23.566406 27.566406 24 27 24 L 13 24 L 13 19 L 11 19 L 11 24 L 5 24 C 4.433594 24 4 23.566406 4 23 L 4 9 C 4 8.433594 4.433594 8 5 8 Z M 8 11 C 6.355469 11 5 12.355469 5 14 C 5 15.644531 6.355469 17 8 17 L 8.480469 17 C 7.808594 17.703125 7.234375 18.621094 7.015625 19.820313 L 8.984375 20.179688 C 9.335938 18.25 11.320313 17.335938 11.984375 17.078125 C 12.640625 17.355469 14.671875 18.339844 15.015625 20.1875 L 16.984375 19.8125 C 16.757813 18.625 16.171875 17.703125 15.484375 17 L 16 17 C 17.644531 17 19 15.644531 19 14 C 19 12.355469 17.644531 11 16 11 C 14.25 11 13.070313 12.316406 12.292969 13.425781 C 12.183594 13.582031 12.09375 13.726563 12 13.878906 C 11.90625 13.726563 11.816406 13.582031 11.707031 13.425781 C 10.929688 12.316406 9.75 11 8 11 Z M 8 13 C 8.625 13 9.445313 13.683594 10.074219 14.574219 C 10.21875 14.785156 10.191406 14.800781 10.308594 15 L 8 15 C 7.433594 15 7 14.566406 7 14 C 7 13.433594 7.433594 13 8 13 Z M 16 13 C 16.566406 13 17 13.433594 17 14 C 17 14.566406 16.566406 15 16 15 L 13.691406 15 C 13.808594 14.800781 13.78125 14.785156 13.925781 14.574219 C 14.554688 13.683594 15.375 13 16 13 Z"/></svg>