<?xml version="1.0"?>
<svg xmlns="http://www.w3.org/2000/svg" xmlns:xlink="http://www.w3.org/1999/xlink" version="1.1" viewBox="0 0 192 192" width="32px" height="32px"><g fill="none" fill-rule="nonzero" stroke="none" stroke-width="1" stroke-linecap="butt" stroke-linejoin="miter" stroke-miterlimit="10" stroke-dasharray="" stroke-dashoffset="0" font-family="none" font-weight="none" font-size="none" text-anchor="none" style="mix-blend-mode: normal"><path d="M0,192v-192h192v192z" fill="none"/><g fill="#3f3f3f"><g id="surface1"><path d="M30,30c-9.86719,0 -18,8.13281 -18,18v72c0,9.86719 8.13281,18 18,18h6v6c0,9.86719 8.13281,18 18,18h108c9.86719,0 18,-8.13281 18,-18v-72c0,-9.86719 -8.13281,-18 -18,-18h-6v-6c0,-9.86719 -8.13281,-18 -18,-18zM30,42h108c3.39844,0 6,2.60156 6,6v6h-114v12h114v54c0,3.39844 -2.60156,6 -6,6h-108c-3.39844,0 -6,-2.60156 -6,-6v-72c0,-3.39844 2.60156,-6 6,-6zM156,66h6c3.39844,0 6,2.60156 6,6v6h-12zM156,90h12v54c0,3.39844 -2.60156,6 -6,6h-108c-3.39844,0 -6,-2.60156 -6,-6v-6h90c9.86719,0 18,-8.13281 18,-18z"/></g></g></g></svg>
