<?xml version="1.0"?>
<svg xmlns="http://www.w3.org/2000/svg" xmlns:xlink="http://www.w3.org/1999/xlink" version="1.1" viewBox="0 0 192 192" width="32px" height="32px"><g fill="none" fill-rule="nonzero" stroke="none" stroke-width="1" stroke-linecap="butt" stroke-linejoin="miter" stroke-miterlimit="10" stroke-dasharray="" stroke-dashoffset="0" font-family="none" font-weight="none" font-size="none" text-anchor="none" style="mix-blend-mode: normal"><path d="M0,192v-192h192v192z" fill="none"/><g fill="#3f3f3f"><g id="surface1"><path d="M90,12c-42.98437,0 -78,35.01563 -78,78c0,42.98437 35.01563,78 78,78c42.98437,0 78,-35.01563 78,-78c0,-42.98437 -35.01563,-78 -78,-78zM90,24c36.51563,0 66,29.48437 66,66c0,36.51563 -29.48437,66 -66,66c-36.51563,0 -66,-29.48437 -66,-66c0,-36.51563 29.48437,-66 66,-66zM90,47.15626l-41.625,40.03124l8.25,8.625l27.42187,-26.29687l-0.04687,62.48437h12l0.04687,-62.34374l27.32813,26.15624l8.25,-8.625z"/></g></g></g></svg>
