<svg fill="#000000" xmlns="http://www.w3.org/2000/svg" viewBox="0 0 32 32" width="32px" height="32px"><path d="M 11 3.2773438 L 11 9 L 5 9 L 5 28.722656 L 7.75 27.152344 L 9.5 28.152344 L 11.25 27.152344 L 13 28.152344 L 14.75 27.152344 L 16.5 28.152344 L 18.25 27.152344 L 21 28.722656 L 21 26 L 28 26 L 28 12 L 21 12 L 21 9 L 20 9 L 13 9 L 13 6.7246094 L 13.75 7.1523438 L 15.5 6.1523438 L 17.25 7.1523438 L 19 6.1523438 L 20.75 7.1523438 L 22.5 6.1523438 L 24.25 7.1523438 L 25 6.7246094 L 25 10 L 27 10 L 27 3.2773438 L 24.25 4.8476562 L 22.5 3.8476562 L 20.75 4.8476562 L 19 3.8476562 L 17.25 4.8476562 L 15.5 3.8476562 L 13.75 4.8476562 L 11 3.2773438 z M 7 11 L 19 11 L 19 25.275391 L 18.25 24.847656 L 16.5 25.847656 L 14.75 24.847656 L 13 25.847656 L 11.25 24.847656 L 9.5 25.847656 L 7.75 24.847656 L 7 25.275391 L 7 11 z M 12 12 L 12 13.416016 C 10.893306 13.85942 10 14.743378 10 16 L 10 17 L 10.416016 17 C 10.85942 18.106694 11.743378 19 13 19 C 13.56503 19 14 19.43497 14 20 C 14 20.56503 13.56503 21 13 21 C 12.43497 21 12 20.56503 12 20 L 11 21 L 11 19 L 10 19 L 10 20 C 10 21.256622 10.893306 22.14058 12 22.583984 L 12 24 L 14 24 L 14 22.583984 C 14.764681 22.27761 15.27761 21.764681 15.583984 21 L 16 21 L 16 20 C 16 18.35503 14.64497 17 13 17 C 12.43497 17 12 16.56503 12 16 C 12 15.43497 12.43497 15 13 15 C 13.56503 15 14 15.43497 14 16 L 14 17 L 15 17 L 15 15 L 16 17 L 16 16 C 16 14.743378 15.106694 13.85942 14 13.416016 L 14 12 L 12 12 z M 21 14 L 24.091797 14 C 24.035954 14.15704 24 14.323878 24 14.5 C 24 15.328 24.672 16 25.5 16 C 25.676122 16 25.84296 15.964046 26 15.908203 L 26 22.091797 C 25.84296 22.035954 25.676122 22 25.5 22 C 24.672 22 24 22.672 24 23.5 C 24 23.676122 24.035954 23.84296 24.091797 24 L 21 24 L 21 14 z M 23 18 C 22.448 18 22 18.448 22 19 C 22 19.552 22.448 20 23 20 C 23.552 20 24 19.552 24 19 C 24 18.448 23.552 18 23 18 z"/></svg>