<?xml version="1.0"?><svg fill="#000000" xmlns="http://www.w3.org/2000/svg" viewBox="0 0 32 32" width="32px" height="32px">    <path d="M 6 7 C 4.35 7 3 8.35 3 10 L 3 23 C 3 24.65 4.35 26 6 26 L 11.960938 26 L 12.25 25.710938 L 12.929688 25.029297 C 13.059688 24.899297 13.43 24.540547 14 24.060547 L 14 24 L 6 24 C 5.45 24 5 23.55 5 23 L 5 10 C 5 9.45 5.45 9 6 9 L 26 9 C 26.55 9 27 9.45 27 10 L 27 11 L 6 11 L 6 13 L 27 13 L 27 21.150391 C 27.72 21.460391 28.39 21.799922 29 22.169922 L 29 10 C 29 8.35 27.65 7 26 7 L 6 7 z M 22.828125 22.244141 C 18.633125 22.244141 14.536797 26.244453 14.341797 26.439453 L 13.658203 27.121094 L 14.341797 27.804688 C 14.537797 27.999688 18.633125 32 22.828125 32 C 27.023125 32 31.121406 27.999688 31.316406 27.804688 L 32 27.121094 L 31.316406 26.439453 C 31.121406 26.244453 27.023125 22.244141 22.828125 22.244141 z M 22.025391 24.3125 C 20.780544 24.649745 19.902344 25.74464 19.902344 27.121094 C 19.902344 28.497547 20.780544 29.594396 22.025391 29.931641 C 19.967061 29.610177 17.831831 28.166024 16.570312 27.121094 C 17.831831 26.07528 19.967571 24.633794 22.025391 24.3125 z M 23.675781 24.316406 C 25.720664 24.651248 27.835243 26.083512 29.087891 27.121094 C 27.826401 28.166884 25.691098 29.610302 23.632812 29.931641 C 24.877659 29.594186 25.755859 28.496718 25.755859 27.121094 C 25.755859 26.828094 25.658203 26.537141 25.658203 26.244141 C 25.365203 26.732141 24.877969 27.121094 24.292969 27.121094 C 23.512969 27.121094 22.828125 26.438203 22.828125 25.658203 C 22.828125 25.085594 23.203458 24.611326 23.675781 24.316406 z"/></svg>