<?xml version="1.0"?>
<svg xmlns="http://www.w3.org/2000/svg" xmlns:xlink="http://www.w3.org/1999/xlink" version="1.1" viewBox="0 0 172 172" width="32px" height="32px"><g fill="none" fill-rule="nonzero" stroke="none" stroke-width="1" stroke-linecap="butt" stroke-linejoin="miter" stroke-miterlimit="10" stroke-dasharray="" stroke-dashoffset="0" font-family="none" font-weight="none" font-size="none" text-anchor="none" style="mix-blend-mode: normal"><path d="M0,172v-172h172v172z" fill="none"/><g fill="#3f3f3f"><g id="surface1"><path d="M86,21.5c-17.82568,0 -33.8457,7.26465 -45.51953,18.98047l-10.07812,-10.07812l-3.52734,34.09766l32.25,-5.375l-11.08594,-11.08594c9.72119,-9.74219 23.07471,-15.78906 37.96094,-15.78906c29.75146,0 53.75,23.99854 53.75,53.75c0,29.75146 -23.99854,53.75 -53.75,53.75h-5.375v10.75h10.75v-0.33594c33.02685,-2.77148 59.125,-30.42334 59.125,-64.16406c0,-35.56738 -28.93261,-64.5 -64.5,-64.5zM80.625,53.75v6.38281c-6.21484,2.26758 -10.75,8.20947 -10.75,15.11719c0,4.47217 2.47754,8.29346 5.20703,10.58203c2.72949,2.28857 5.87891,3.67432 8.56641,5.03906c2.6875,1.36474 5.08106,2.62451 6.38281,3.69531c1.30176,1.0708 1.34375,1.36474 1.34375,2.18359c0,2.81348 -2.43555,5.375 -5.375,5.375c-3.04443,0 -5.375,-2.33057 -5.375,-5.375h-10.75c0,6.94971 4.53516,12.8706 10.75,15.11719v6.38281h10.75v-6.38281c6.23584,-2.26758 10.75,-8.23047 10.75,-15.11719c0,-4.47217 -2.64551,-8.14648 -5.375,-10.41406c-2.72949,-2.26758 -5.71094,-3.69531 -8.39844,-5.03906c-2.6875,-1.34375 -4.91308,-2.60352 -6.21484,-3.69531c-1.30176,-1.0918 -1.51172,-1.44873 -1.51172,-2.35156c0,-2.89746 2.39356,-5.375 5.375,-5.375c3.04443,0 5.375,2.33057 5.375,5.375h10.75c0,-6.94971 -4.53516,-12.8706 -10.75,-15.11719v-6.38281zM26.875,80.625c-2.96045,0 -5.375,2.41455 -5.375,5.375c0,2.96045 2.41455,5.375 5.375,5.375c2.96045,0 5.375,-2.41455 5.375,-5.375c0,-2.96045 -2.41455,-5.375 -5.375,-5.375zM31.41016,103.30078c-0.69287,0 -1.32276,0.04199 -2.01562,0.33594c-2.75049,1.13379 -4.15722,4.3042 -3.02344,7.05469c1.13379,2.75049 4.3042,3.98926 7.05469,2.85547c2.75049,-1.13379 3.98926,-4.3042 2.85547,-7.05469c-0.86084,-2.05761 -2.77148,-3.17041 -4.87109,-3.19141zM44.17578,122.44922c-1.38574,0 -2.81347,0.46192 -3.86328,1.51172c-2.09961,2.09961 -2.09961,5.62695 0,7.72656c2.09961,2.09961 5.62695,2.09961 7.72656,0c2.09961,-2.09961 2.09961,-5.62695 0,-7.72656c-1.0498,-1.0498 -2.47754,-1.51172 -3.86328,-1.51172zM63.32422,135.21484c-2.09961,0.02099 -4.01026,1.30176 -4.87109,3.35938c-1.13379,2.75049 0.10498,5.9209 2.85547,7.05469c2.75049,1.13379 5.9209,-0.27295 7.05469,-3.02344c1.13379,-2.75049 -0.10498,-5.75293 -2.85547,-6.88672c-0.69287,-0.29394 -1.49072,-0.50391 -2.18359,-0.50391z"/></g></g></g></svg>
