<?xml version="1.0"?>
<svg xmlns="http://www.w3.org/2000/svg" xmlns:xlink="http://www.w3.org/1999/xlink" version="1.1" viewBox="0 0 172 172" width="32px" height="32px"><g fill="none" fill-rule="nonzero" stroke="none" stroke-width="1" stroke-linecap="butt" stroke-linejoin="miter" stroke-miterlimit="10" stroke-dasharray="" stroke-dashoffset="0" font-family="none" font-weight="none" font-size="none" text-anchor="none" style="mix-blend-mode: normal"><path d="M0,172v-172h172v172z" fill="none"/><g fill="#3f3f3f"><g id="surface1"><path d="M105.31641,15.28516l-8.73437,6.04688l30.06641,44.17578l8.73438,-6.04687zM82.64063,35.10547l-7.05469,8.0625l40.3125,34.9375l7.05469,-8.0625zM66.51563,58.62109l-4.87109,9.57422l47.53516,24.1875l4.87109,-9.57422zM57.27734,82.97656l-2.35156,10.41406l51.90234,12.26172l2.35156,-10.41406zM32.25,96.75v59.125h96.75v-59.125h-10.75v48.375h-75.25v-48.375zM54.25391,105.82031l-0.67187,10.75l53.24609,3.02344l0.67188,-10.75zM53.75,123.625v10.75h53.41406v-10.75z"/></g></g></g></svg>
