<?xml version="1.0"?>
<svg xmlns="http://www.w3.org/2000/svg" xmlns:xlink="http://www.w3.org/1999/xlink" version="1.1" viewBox="0 0 192 192" width="32px" height="32px"><g fill="none" fill-rule="nonzero" stroke="none" stroke-width="1" stroke-linecap="butt" stroke-linejoin="miter" stroke-miterlimit="10" stroke-dasharray="" stroke-dashoffset="0" font-family="none" font-weight="none" font-size="none" text-anchor="none" style="mix-blend-mode: normal"><path d="M0,192v-192h192v192z" fill="none"/><g fill="#3f3f3f"><g id="surface1"><path d="M72,30c-36.375,0 -66,29.625 -66,66c0,36.375 29.625,66 66,66c4.10156,0 8.10938,-0.39844 12,-1.125c3.89063,0.72656 7.875,1.125 12,1.125c4.10156,0 8.10938,-0.39844 12,-1.125c3.89063,0.72656 7.875,1.125 12,1.125c36.375,0 66,-29.625 66,-66c0,-36.375 -29.625,-66 -66,-66c-4.125,0 -8.10937,0.39844 -12,1.125c-3.89062,-0.72656 -7.89844,-1.125 -12,-1.125c-4.125,0 -8.10937,0.39844 -12,1.125c-3.89062,-0.72656 -7.89844,-1.125 -12,-1.125zM72,42c29.88281,0 54,24.11719 54,54c0,29.88281 -24.11719,54 -54,54c-29.88281,0 -54,-24.11719 -54,-54c0,-29.88281 24.11719,-54 54,-54zM114,45.1875c21,7.40625 36,27.23438 36,50.8125c0,23.57813 -15,43.40625 -36,50.8125c14.67188,-12.11719 24,-30.35156 24,-50.8125c0,-20.46094 -9.32812,-38.69531 -24,-50.8125zM138,45.1875c21,7.40625 36,27.23438 36,50.8125c0,23.57813 -15,43.40625 -36,50.8125c14.67188,-12.11719 24,-30.35156 24,-50.8125c0,-20.46094 -9.32812,-38.69531 -24,-50.8125zM66,60v7.125c-6.9375,2.50781 -12,9.11719 -12,16.875c0,9.86719 8.13281,18 18,18c3.39844,0 6,2.60156 6,6c0,3.39844 -2.60156,6 -6,6c-3.39844,0 -6,-2.60156 -6,-6h-12c0,7.75781 5.0625,14.36719 12,16.875v7.125h12v-7.125c6.9375,-2.50781 12,-9.11719 12,-16.875c0,-9.86719 -8.13281,-18 -18,-18c-3.39844,0 -6,-2.60156 -6,-6c0,-3.39844 2.60156,-6 6,-6c3.39844,0 6,2.60156 6,6h12c0,-7.75781 -5.0625,-14.36719 -12,-16.875v-7.125z"/></g></g></g></svg>
