<svg fill="#000000" xmlns="http://www.w3.org/2000/svg" viewBox="0 0 24 24" width="24px" height="24px"><path d="M 11 3 C 7.425781 3 4.457031 5.410156 3.4375 8.65625 C 1.429688 9.625 0 11.628906 0 14 C 0 17.300781 2.699219 20 6 20 L 18 20 C 21.300781 20 24 17.300781 24 14 C 24 10.820313 21.480469 8.25 18.34375 8.0625 C 17.160156 5.121094 14.355469 3 11 3 Z M 11 5 C 13.734375 5 16.019531 6.824219 16.75 9.3125 L 16.96875 10.0625 L 17.78125 10.03125 C 17.996094 10.019531 18.058594 10 18 10 C 20.222656 10 22 11.777344 22 14 C 22 16.21875 20.222656 18 18 18 L 6 18 C 3.777344 18 2 16.21875 2 14 C 2 12.289063 3.0625 10.859375 4.5625 10.28125 L 5.0625 10.09375 L 5.1875 9.59375 C 5.824219 6.96875 8.167969 5 11 5 Z M 10 9 L 10 13 L 8.25 13 L 11 16.75 L 13.75 13 L 12 13 L 12 9 Z"/></svg>