<?xml version="1.0"?>
<svg xmlns="http://www.w3.org/2000/svg" xmlns:xlink="http://www.w3.org/1999/xlink" version="1.1" viewBox="0 0 192 192" width="32px" height="32px"><g fill="none" fill-rule="nonzero" stroke="none" stroke-width="1" stroke-linecap="butt" stroke-linejoin="miter" stroke-miterlimit="10" stroke-dasharray="" stroke-dashoffset="0" font-family="none" font-weight="none" font-size="none" text-anchor="none" style="mix-blend-mode: normal"><path d="M0,192v-192h192v192z" fill="none"/><g fill="#3f3f3f"><g id="surface1"><path d="M96,23.8125l-4.3125,4.125l-24,24l8.625,8.625l13.6875,-13.6875v73.125h12v-73.125l13.6875,13.6875l8.625,-8.625l-24,-24zM54.5625,37.125c-18.49219,13.03125 -30.5625,34.57031 -30.5625,58.875c0,39.70313 32.29688,72 72,72c39.70313,0 72,-32.29687 72,-72c0,-24.30469 -12.07031,-45.84375 -30.5625,-58.875l-6.9375,9.75c15.42188,10.85156 25.5,28.78125 25.5,49.125c0,33.21094 -26.78906,60 -60,60c-33.21094,0 -60,-26.78906 -60,-60c0,-20.34375 10.07813,-38.25 25.5,-49.125z"/></g></g></g></svg>
