<?xml version="1.0"?>
<svg xmlns="http://www.w3.org/2000/svg" xmlns:xlink="http://www.w3.org/1999/xlink" version="1.1" viewBox="0 0 192 192" width="32px" height="32px"><g fill="none" fill-rule="nonzero" stroke="none" stroke-width="1" stroke-linecap="butt" stroke-linejoin="miter" stroke-miterlimit="10" stroke-dasharray="" stroke-dashoffset="0" font-family="none" font-weight="none" font-size="none" text-anchor="none" style="mix-blend-mode: normal"><path d="M0,192v-192h192v192z" fill="none"/><g fill="#3f3f3f"><g id="surface1"><path d="M54,24c-16.5,0 -30,13.5 -30,30c0,9.09375 4.24219,17.17969 10.6875,22.6875c-13.5,7.00781 -22.6875,21.11719 -22.6875,37.3125h12c0,-16.64062 13.35938,-30 30,-30c16.64063,0 30,13.35938 30,30h12c0,-16.19531 -9.1875,-30.30469 -22.6875,-37.3125c6.44531,-5.50781 10.6875,-13.59375 10.6875,-22.6875c0,-16.5 -13.5,-30 -30,-30zM96,114h12c0,-16.64062 13.35938,-30 30,-30c16.64063,0 30,13.35938 30,30h12c0,-16.19531 -9.1875,-30.30469 -22.6875,-37.3125c6.44531,-5.50781 10.6875,-13.59375 10.6875,-22.6875c0,-16.5 -13.5,-30 -30,-30c-16.5,0 -30,13.5 -30,30c0,9.09375 4.24219,17.17969 10.6875,22.6875c-13.5,7.00781 -22.6875,21.11719 -22.6875,37.3125zM54,36c10.00781,0 18,7.99219 18,18c0,10.00781 -7.99219,18 -18,18c-10.00781,0 -18,-7.99219 -18,-18c0,-10.00781 7.99219,-18 18,-18zM138,36c10.00781,0 18,7.99219 18,18c0,10.00781 -7.99219,18 -18,18c-10.00781,0 -18,-7.99219 -18,-18c0,-10.00781 7.99219,-18 18,-18zM37.6875,121.6875l-18,18l-4.125,4.3125l4.125,4.3125l18,18l8.625,-8.625l-7.6875,-7.6875h27.375v-12h-27.375l7.6875,-7.6875zM154.3125,121.6875l-8.625,8.625l7.6875,7.6875h-27.375v12h27.375l-7.6875,7.6875l8.625,8.625l18,-18l4.125,-4.3125l-4.125,-4.3125zM78,138v12h12v-12zM102,138v12h12v-12z"/></g></g></g></svg>
