<?xml version="1.0"?>
<svg xmlns="http://www.w3.org/2000/svg" xmlns:xlink="http://www.w3.org/1999/xlink" version="1.1" viewBox="0 0 192 192" width="32px" height="32px"><g fill="none" fill-rule="nonzero" stroke="none" stroke-width="1" stroke-linecap="butt" stroke-linejoin="miter" stroke-miterlimit="10" stroke-dasharray="" stroke-dashoffset="0" font-family="none" font-weight="none" font-size="none" text-anchor="none" style="mix-blend-mode: normal"><path d="M0,192v-192h192v192z" fill="none"/><g fill="#3f3f3f"><g id="surface1"><path d="M12,42v42h6c7.14844,0 12,4.85156 12,12c0,7.14844 -4.85156,12 -12,12h-6v42h168v-42h-6c-7.14844,0 -12,-4.85156 -12,-12c0,-7.14844 4.85156,-12 12,-12h6v-42zM24,54h144v19.125c-10.28906,2.69531 -18,11.74219 -18,22.875c0,11.13281 7.71094,20.17969 18,22.875v19.125h-144v-19.125c10.28906,-2.69531 18,-11.74219 18,-22.875c0,-11.13281 -7.71094,-20.17969 -18,-22.875zM96,60.5625l-10.125,23.4375l-25.875,3l19.125,17.4375l-5.25,25.125l22.125,-12.5625l22.125,12.5625l-5.25,-25.125l19.125,-17.4375l-25.875,-3zM96,90.5625l2.4375,5.4375l5.4375,0.5625l-4.3125,3.5625l1.3125,5.4375l-4.875,-3l-4.875,3l1.3125,-5.4375l-4.3125,-4.125l5.4375,-0.5625z"/></g></g></g></svg>
