<?xml version="1.0"?>
<svg xmlns="http://www.w3.org/2000/svg" xmlns:xlink="http://www.w3.org/1999/xlink" version="1.1" viewBox="0 0 192 192" width="32px" height="32px"><g fill="none" fill-rule="nonzero" stroke="none" stroke-width="1" stroke-linecap="butt" stroke-linejoin="miter" stroke-miterlimit="10" stroke-dasharray="" stroke-dashoffset="0" font-family="none" font-weight="none" font-size="none" text-anchor="none" style="mix-blend-mode: normal"><path d="M0,192v-192h192v192z" fill="none"/><g fill="#3f3f3f"><g id="surface1"><path d="M96,24c-13.19531,0 -24,10.80469 -24,24c0,6.21094 2.46094,11.83594 6.375,16.125c-2.4375,1.19531 -4.59375,2.67188 -6.75,4.3125c-1.73437,-11.53125 -11.64844,-20.4375 -23.625,-20.4375c-13.19531,0 -24,10.80469 -24,24c0,6.39844 2.60156,12.1875 6.75,16.5c-1.54687,0.84375 -3.09375,1.75781 -4.5,2.8125c-8.64844,6.5625 -14.25,17.01563 -14.25,28.6875h12c0,-7.85156 3.77344,-14.74219 9.5625,-19.125c4.03125,-3.04687 8.97656,-4.875 14.4375,-4.875c3.72656,0 7.21875,1.00781 10.5,2.625l6.5625,3.1875l1.875,-7.125c3.28125,-12.98437 14.97656,-22.6875 29.0625,-22.6875c14.0625,0 25.75781,9.53906 29.0625,22.5l1.875,7.3125l6.5625,-3.375c3.23438,-1.59375 6.75,-2.4375 10.5,-2.4375c13.3125,0 24,10.6875 24,24h12c0,-13.52344 -7.64062,-25.35937 -18.75,-31.5c4.14844,-4.3125 6.75,-10.10156 6.75,-16.5c0,-13.19531 -10.80469,-24 -24,-24c-11.97656,0 -21.89062,8.90625 -23.625,20.4375c-2.15625,-1.64062 -4.3125,-3.11719 -6.75,-4.3125c3.91406,-4.28906 6.375,-9.91406 6.375,-16.125c0,-13.19531 -10.80469,-24 -24,-24zM96,36c6.70313,0 12,5.29688 12,12c0,6.70313 -5.29687,12 -12,12c-6.70312,0 -12,-5.29687 -12,-12c0,-6.70312 5.29688,-12 12,-12zM48,60c6.70313,0 12,5.29688 12,12c0,6.70313 -5.29687,12 -12,12c-6.70312,0 -12,-5.29687 -12,-12c0,-6.70312 5.29688,-12 12,-12zM144,60c6.70313,0 12,5.29688 12,12c0,6.70313 -5.29687,12 -12,12c-6.70312,0 -12,-5.29687 -12,-12c0,-6.70312 5.29688,-12 12,-12zM96,96c-13.19531,0 -24,10.80469 -24,24c0,6.39844 2.60156,12.1875 6.75,16.5c-11.10937,6.14063 -18.75,17.97656 -18.75,31.5h12c0,-13.3125 10.6875,-24 24,-24c13.3125,0 24,10.6875 24,24h12c0,-13.52344 -7.64062,-25.35937 -18.75,-31.5c4.14844,-4.3125 6.75,-10.10156 6.75,-16.5c0,-13.19531 -10.80469,-24 -24,-24zM96,108c6.70313,0 12,5.29688 12,12c0,6.70313 -5.29687,12 -12,12c-6.70312,0 -12,-5.29687 -12,-12c0,-6.70312 5.29688,-12 12,-12z"/></g></g></g></svg>
