<svg fill="#000000" xmlns="http://www.w3.org/2000/svg" viewBox="0 0 32 32" width="32px" height="32px"><path d="M 24 0 L 21.714844 4 L 6 4 L 6 9 L 5 9 L 5 11 L 8 11 L 8 10 L 8 9 L 8 6 L 20.572266 6 L 16 14 L 24 14 L 24 16 C 19.6 16 16 19.6 16 24 C 16 24.691044 16.098874 25.35927 16.265625 26 L 8 26 L 8 22 L 6 22 L 6 28 L 17.087891 28 C 18.477015 30.384094 21.05638 32 24 32 C 28.4 32 32 28.4 32 24 C 32 20.291044 29.438915 17.160607 26 16.265625 L 26 14 L 32 14 L 24 0 z M 23 5 L 25 5 L 25.03125 9 L 23 9 L 23 5 z M 23 10 L 25 10 L 25 12 L 23 12 L 23 10 z M 6 12 L 6 14 L 5 14 L 5 16 L 8 16 L 8 14 L 8 12 L 6 12 z M 6 17 L 6 19 L 5 19 L 5 21 L 8 21 L 8 19 L 8 17 L 6 17 z M 24 18 C 27.3 18 30 20.7 30 24 C 30 27.3 27.3 30 24 30 C 20.7 30 18 27.3 18 24 C 18 20.7 20.7 18 24 18 z M 21.699219 20.300781 L 20.300781 21.699219 L 22.599609 24 L 20.300781 26.300781 L 21.699219 27.699219 L 24 25.400391 L 26.300781 27.699219 L 27.699219 26.300781 L 25.400391 24 L 27.699219 21.699219 L 26.300781 20.300781 L 24 22.599609 L 21.699219 20.300781 z"/></svg>