<svg fill="#000000" xmlns="http://www.w3.org/2000/svg" viewBox="0 0 32 32" width="32px" height="32px"><path d="M 21 3 C 17.145851 3 14 6.1458514 14 10 C 14 13.854149 17.145851 17 21 17 C 24.854149 17 28 13.854149 28 10 C 28 6.1458514 24.854149 3 21 3 z M 21 5.1054688 C 21.129328 5.2731134 21.310515 5.6112339 21.464844 6.0742188 C 21.554525 6.3432614 21.633491 6.6606521 21.705078 7 L 20.294922 7 C 20.366509 6.6606521 20.445475 6.3432614 20.535156 6.0742188 C 20.689485 5.6112339 20.870672 5.2731133 21 5.1054688 z M 18.580078 5.6445312 C 18.451548 6.0605875 18.346639 6.51685 18.259766 7 L 17.015625 7 C 17.434917 6.4427842 17.966252 5.9848386 18.580078 5.6445312 z M 23.419922 5.6445312 C 24.033748 5.9848386 24.565083 6.4427842 24.984375 7 L 23.740234 7 C 23.653361 6.51685 23.548452 6.0605875 23.419922 5.6445312 z M 16.099609 9 L 18.03125 9 C 18.014166 9.3282872 18 9.6575801 18 10 C 18 10.34242 18.014166 10.671713 18.03125 11 L 16.099609 11 C 16.034822 10.677274 16 10.342572 16 10 C 16 9.6574282 16.034822 9.322726 16.099609 9 z M 20.035156 9 L 21.964844 9 C 21.984698 9.3251418 22 9.6571716 22 10 C 22 10.342828 21.984698 10.674858 21.964844 11 L 20.035156 11 C 20.015302 10.674858 20 10.342828 20 10 C 20 9.6571716 20.015302 9.3251418 20.035156 9 z M 23.96875 9 L 25.900391 9 C 25.965178 9.322726 26 9.6574282 26 10 C 26 10.342572 25.965178 10.677274 25.900391 11 L 23.96875 11 C 23.985834 10.671713 24 10.34242 24 10 C 24 9.6575801 23.985834 9.3282872 23.96875 9 z M 17.015625 13 L 18.259766 13 C 18.346639 13.48315 18.451548 13.939412 18.580078 14.355469 C 17.966252 14.015161 17.434917 13.557216 17.015625 13 z M 20.294922 13 L 21.705078 13 C 21.633491 13.339348 21.554525 13.656739 21.464844 13.925781 C 21.310515 14.388766 21.129328 14.726887 21 14.894531 C 20.870672 14.726887 20.689485 14.388766 20.535156 13.925781 C 20.445475 13.656739 20.366509 13.339348 20.294922 13 z M 23.740234 13 L 24.984375 13 C 24.565083 13.557216 24.033748 14.015161 23.419922 14.355469 C 23.548452 13.939412 23.653361 13.48315 23.740234 13 z M 11.474609 16 C 8.2773647 16 4.0410156 17.759766 4.0410156 17.759766 L 4.7773438 19.619141 C 4.7773438 19.619141 9.0838548 18 11.474609 18 C 12.441442 18 14.093959 18.584974 15.441406 19.273438 C 16.11513 19.617669 16.724376 19.981507 17.169922 20.277344 C 17.392695 20.425262 17.575839 20.557027 17.695312 20.652344 C 17.707257 20.661873 17.709768 20.667953 17.720703 20.677734 C 17.770166 20.718044 17.813108 20.76235 17.849609 20.810547 L 17.910156 20.902344 C 18.039699 21.141121 18.036827 21.43396 17.865234 21.679688 C 17.670949 21.955823 17.328502 22.06272 17.009766 21.955078 L 12.658203 19.884766 L 11.798828 21.689453 L 16.289062 23.826172 L 16.339844 23.84375 C 17.25966 24.166121 18.192183 23.8543 18.921875 23.255859 L 19.203125 23.255859 L 19.5 22.832031 L 19.501953 22.830078 C 19.900226 22.263059 20.040079 21.592087 19.966797 20.947266 L 24.740234 20.167969 L 24.742188 20.167969 C 25.272706 20.079639 25.773838 20.381536 25.943359 20.890625 C 26.122994 21.430058 25.877339 21.990361 25.359375 22.21875 C 23.894195 22.864331 21.509942 23.829548 19.392578 24.625 C 18.333896 25.022726 17.338077 25.378918 16.564453 25.630859 C 16.177641 25.75683 15.845728 25.855742 15.599609 25.919922 C 15.353442 25.984106 15.14474 26 15.246094 26 C 15.308994 26 14.892652 25.90444 14.421875 25.650391 C 13.951098 25.396336 13.376025 25.031842 12.785156 24.65625 C 12.194288 24.280658 11.58827 23.895118 11.005859 23.585938 C 10.423449 23.276757 9.9068066 23 9.1992188 23 C 7.5632913 23 6.1015625 23.632813 6.1015625 23.632812 L 6.8652344 25.482422 C 6.8652344 25.482422 8.1091461 25 9.1992188 25 C 9.1731308 25 9.5911765 25.09824 10.068359 25.351562 C 10.545543 25.604882 11.123884 25.969342 11.712891 26.34375 C 12.301897 26.718158 12.901089 27.103664 13.472656 27.412109 C 14.044223 27.720555 14.536195 28 15.246094 28 C 15.587448 28 15.795131 27.93589 16.103516 27.855469 C 16.4119 27.775049 16.77314 27.66492 17.183594 27.53125 C 18.004502 27.26391 19.01926 26.900493 20.095703 26.496094 C 22.24859 25.687296 24.642195 24.720247 26.166016 24.048828 C 27.183325 23.600259 27.645944 22.620388 27.775391 21.574219 L 28.279297 21.574219 L 27.839844 20.259766 C 27.363794 18.830143 25.904067 17.949897 24.417969 18.195312 L 24.414062 18.195312 L 18.941406 19.087891 C 18.923353 19.073488 18.895671 19.055598 18.876953 19.041016 C 18.858819 19.027653 18.844726 19.011023 18.826172 18.998047 L 18.53125 18.787109 L 18.527344 18.791016 C 18.440646 18.730205 18.374892 18.676099 18.277344 18.611328 C 17.75939 18.267414 17.092886 17.871956 16.349609 17.492188 C 14.863057 16.732651 13.115777 16 11.474609 16 z"/></svg>