<?xml version="1.0"?>
<svg xmlns="http://www.w3.org/2000/svg" xmlns:xlink="http://www.w3.org/1999/xlink" version="1.1" viewBox="0 0 172 172" width="32px" height="32px"><g fill="none" fill-rule="nonzero" stroke="none" stroke-width="1" stroke-linecap="butt" stroke-linejoin="miter" stroke-miterlimit="10" stroke-dasharray="" stroke-dashoffset="0" font-family="none" font-weight="none" font-size="none" text-anchor="none" style="mix-blend-mode: normal"><path d="M0,172v-172h172v172z" fill="none"/><g fill="#3f3f3f"><g id="surface1"><path d="M112.875,16.125c-4.26221,0 -25.2373,0.90283 -46.52734,5.54297c-10.64502,2.30957 -21.16406,5.56396 -29.5625,10.41406c-8.39844,4.8501 -15.28516,12.05176 -15.28516,21.66797c0,8.48242 3.50635,15.36914 8.39844,19.98828c4.89209,4.61914 10.83398,7.22266 16.46094,9.40625c5.62695,2.18359 11.04395,3.90528 14.44531,5.54297c1.70068,0.81885 2.89746,1.70068 3.35938,2.18359c0.46192,0.48291 0.33594,0.25195 0.33594,0.50391c0,0.86084 -0.77685,2.24658 -3.69531,4.36719c-2.91846,2.1206 -7.39062,4.38818 -12.09375,6.71875c-4.70312,2.33057 -9.63721,4.64014 -13.77344,7.72656c-4.13623,3.08643 -8.0625,7.5376 -8.0625,13.4375c0,5.24903 2.72949,9.7002 6.04688,12.93359c3.31739,3.2334 7.34864,5.64795 11.42188,7.55859c8.12549,3.80029 16.43994,5.64795 18.98047,6.21484l2.35156,-10.41406c-2.28857,-0.50391 -10.01514,-2.37256 -16.79687,-5.54297c-3.38037,-1.5957 -6.59277,-3.61133 -8.56641,-5.54297c-1.97363,-1.93164 -2.6875,-3.46435 -2.6875,-5.20703c0,-1.0918 0.77685,-2.54053 3.69531,-4.70312c2.91846,-2.1626 7.39063,-4.40918 12.09375,-6.71875c4.70313,-2.30957 9.63721,-4.72412 13.77344,-7.72656c4.13623,-3.00244 8.0625,-7.24365 8.0625,-13.10156c0,-3.10742 -1.46972,-6.08886 -3.35937,-8.0625c-1.88965,-1.97363 -4.05224,-3.2544 -6.38281,-4.36719c-4.66113,-2.22558 -9.99414,-3.71631 -15.11719,-5.71094c-5.12305,-1.99463 -9.93115,-4.38818 -13.10156,-7.39062c-3.17041,-3.00244 -5.03906,-6.31982 -5.03906,-12.09375c0,-4.61914 3.19141,-8.54541 9.91016,-12.42969c6.71875,-3.88428 16.33496,-6.88672 26.37109,-9.07031c20.09326,-4.36719 42.16016,-5.375 44.34375,-5.375zM139.75,64.66797c-4.11523,0 -8.14648,1.5957 -11.25391,4.70313l-53.24609,53.07813l-1.17578,1.17578l-0.33594,1.67969l-3.69531,18.8125l-1.67969,7.89453l7.89453,-1.67969l18.8125,-3.69531l1.67969,-0.33594l1.17578,-1.17578l53.07813,-53.24609c6.19385,-6.19385 6.19385,-16.31396 0,-22.50781c-3.10742,-3.10742 -7.13867,-4.70312 -11.25391,-4.70312zM139.75,75.08203c1.25977,0 2.49854,0.65088 3.69531,1.84766c2.39356,2.39356 2.39356,4.99707 0,7.39063l-52.07031,52.07031l-9.23828,1.84766l1.84766,-9.23828l52.07031,-52.07031c1.19678,-1.19678 2.43555,-1.84766 3.69531,-1.84766z"/></g></g></g></svg>
