<?xml version="1.0"?>
<svg xmlns="http://www.w3.org/2000/svg" xmlns:xlink="http://www.w3.org/1999/xlink" version="1.1" viewBox="0 0 192 192" width="32px" height="32px"><g fill="none" fill-rule="nonzero" stroke="none" stroke-width="1" stroke-linecap="butt" stroke-linejoin="miter" stroke-miterlimit="10" stroke-dasharray="" stroke-dashoffset="0" font-family="none" font-weight="none" font-size="none" text-anchor="none" style="mix-blend-mode: normal"><path d="M0,192v-192h192v192z" fill="none"/><g fill="#3f3f3f"><g id="surface1"><path d="M132,18c-19.80469,0 -36,16.19531 -36,36c0,5.95313 2.29688,12.02344 5.25,18.75c2.95313,6.72656 6.67969,13.85156 10.5,20.4375c7.64063,13.17188 15.375,24.1875 15.375,24.1875l4.875,7.125l4.875,-7.125c0,0 7.73438,-11.01562 15.375,-24.1875c3.82031,-6.58594 7.54688,-13.71094 10.5,-20.4375c2.95313,-6.72656 5.25,-12.79687 5.25,-18.75c0,-19.80469 -16.19531,-36 -36,-36zM71.8125,29.625l-47.8125,20.4375v115.125l48.1875,-20.8125l48,18l47.8125,-20.4375v-52.3125c-3.82031,7.33594 -8.0625,14.36719 -12,20.625v23.8125l-30,12.75v-9.75l-8.8125,-12.75c-0.9375,-1.35937 -2.03906,-2.97656 -3.1875,-4.6875v27.75l-36,-13.5v-89.25l6.5625,2.4375c0.58594,-4.05469 1.64063,-7.96875 3.1875,-11.625zM132,30c13.3125,0 24,10.6875 24,24c0,2.32031 -1.45312,7.80469 -4.125,13.875c-2.67187,6.07031 -6.44531,12.96094 -10.125,19.3125c-4.89844,8.4375 -7.00781,11.4375 -9.75,15.5625c-2.74219,-4.125 -4.85156,-7.125 -9.75,-15.5625c-3.67969,-6.35156 -7.45312,-13.24219 -10.125,-19.3125c-2.67187,-6.07031 -4.125,-11.55469 -4.125,-13.875c0,-13.3125 10.6875,-24 24,-24zM66,45v89.0625l-30,12.75v-88.875zM132,45c-4.96875,0 -9,4.03125 -9,9c0,4.96875 4.03125,9 9,9c4.96875,0 9,-4.03125 9,-9c0,-4.96875 -4.03125,-9 -9,-9z"/></g></g></g></svg>
