<?xml version="1.0"?>
<svg xmlns="http://www.w3.org/2000/svg" xmlns:xlink="http://www.w3.org/1999/xlink" version="1.1" viewBox="0 0 192 192" width="32px" height="32px"><g fill="none" fill-rule="nonzero" stroke="none" stroke-width="1" stroke-linecap="butt" stroke-linejoin="miter" stroke-miterlimit="10" stroke-dasharray="" stroke-dashoffset="0" font-family="none" font-weight="none" font-size="none" text-anchor="none" style="mix-blend-mode: normal"><path d="M0,192v-192h192v192z" fill="none"/><g fill="#3f3f3f"><path d="M96,23.41406l-72,32.71875v21.86719h18v66h-12v12h-6v12h144v-12h-6v-12h-12v-66h18v-21.86719zM96,36.58594l60,27.28125v2.13281h-30v12h12v66h-84v-66h12v-12h-30v-2.13281zM90,60v7.125c-6.94393,2.50421 -12,9.11624 -12,16.875c0,9.86982 8.13018,18 18,18c3.39018,0 6,2.60982 6,6c0,3.39018 -2.60982,6 -6,6c-3.39018,0 -6,-2.60982 -6,-6h-12c0,7.75876 5.05607,14.37079 12,16.875v7.125h12v-7.125c6.94393,-2.50421 12,-9.11624 12,-16.875c0,-9.86982 -8.13018,-18 -18,-18c-3.39018,0 -6,-2.60982 -6,-6c0,-3.39018 2.60982,-6 6,-6c3.39018,0 6,2.60982 6,6h12c0,-7.75876 -5.05607,-14.37079 -12,-16.875v-7.125z"/></g></g></svg>
