<?xml version="1.0"?>
<svg xmlns="http://www.w3.org/2000/svg" xmlns:xlink="http://www.w3.org/1999/xlink" version="1.1" viewBox="0 0 192 192" width="32px" height="32px"><g fill="none" fill-rule="nonzero" stroke="none" stroke-width="1" stroke-linecap="butt" stroke-linejoin="miter" stroke-miterlimit="10" stroke-dasharray="" stroke-dashoffset="0" font-family="none" font-weight="none" font-size="none" text-anchor="none" style="mix-blend-mode: normal"><path d="M0,192v-192h192v192z" fill="none"/><g fill="#3f3f3f"><g id="surface1"><path d="M96,24c-39.70312,0 -72,32.29688 -72,72c0,39.70313 32.29688,72 72,72c39.70313,0 72,-32.29687 72,-72c0,-39.70312 -32.29687,-72 -72,-72zM96,36c33.21094,0 60,26.78906 60,60c0,33.21094 -26.78906,60 -60,60c-33.21094,0 -60,-26.78906 -60,-60c0,-33.21094 26.78906,-60 60,-60zM72,66l18,30l-18,30h12l12,-20.0625l12,20.0625h12l-18,-30l18,-30h-12l-12,20.0625l-12,-20.0625z"/></g></g></g></svg>
