<?xml version="1.0"?>
<svg xmlns="http://www.w3.org/2000/svg" xmlns:xlink="http://www.w3.org/1999/xlink" version="1.1" viewBox="0 0 192 192" width="32px" height="32px"><g fill="none" fill-rule="nonzero" stroke="none" stroke-width="1" stroke-linecap="butt" stroke-linejoin="miter" stroke-miterlimit="10" stroke-dasharray="" stroke-dashoffset="0" font-family="none" font-weight="none" font-size="none" text-anchor="none" style="mix-blend-mode: normal"><path d="M0,192v-192h192v192z" fill="none"/><g fill="#3f3f3f"><g id="surface1"><path d="M126,18c-26.57812,0 -48,21.42188 -48,48c0,1.40625 0.21094,3.32813 0.375,5.0625l-51.375,51.375c-11.8125,11.8125 -11.8125,30.75 0,42.5625c11.8125,11.8125 30.75,11.8125 42.5625,0l51.375,-51.375c1.73438,0.16406 3.65625,0.375 5.0625,0.375c26.57813,0 48,-21.42187 48,-48c0,-8.20312 -2.10937,-15.79687 -5.625,-22.125l-3.75,-6.9375l-5.625,5.625l-25.875,25.6875l-9.375,-9.375l25.6875,-25.875l5.625,-5.625l-6.9375,-3.75c-6.32812,-3.51562 -13.92187,-5.625 -22.125,-5.625zM126,30c2.90625,0 5.08594,1.24219 7.6875,1.875l-27,27l4.3125,4.125l18,18l4.125,4.3125l27,-27c0.63281,2.60156 1.875,4.78125 1.875,7.6875c0,20.22656 -15.77344,36 -36,36c-2.39062,0 -4.33594,0 -5.8125,-0.375l-3.1875,-0.9375l-55.875,55.875c-7.38281,7.38281 -18.30469,7.38281 -25.6875,0l-0.1875,-0.1875c-7.19531,-7.38281 -7.14844,-18.16406 0.1875,-25.5l55.875,-55.875l-0.9375,-3.1875c-0.375,-1.47656 -0.375,-3.42187 -0.375,-5.8125c0,-20.22656 15.77344,-36 36,-36z"/></g></g></g></svg>
