<?xml version="1.0"?>
<svg xmlns="http://www.w3.org/2000/svg" xmlns:xlink="http://www.w3.org/1999/xlink" version="1.1" viewBox="0 0 192 192" width="32px" height="32px"><g fill="none" fill-rule="nonzero" stroke="none" stroke-width="1" stroke-linecap="butt" stroke-linejoin="miter" stroke-miterlimit="10" stroke-dasharray="" stroke-dashoffset="0" font-family="none" font-weight="none" font-size="none" text-anchor="none" style="mix-blend-mode: normal"><path d="M0,192v-192h192v192z" fill="none"/><g fill="#3f3f3f"><g id="surface1"><path d="M69,24c-5.39062,0 -10.73437,2.10938 -14.8125,6.1875c-8.15625,8.15625 -8.15625,21.46875 0,29.625c2.74219,2.74219 5.90625,4.26563 9.9375,6.1875h-34.125v108h132v-108h-34.125c4.03125,-1.92187 7.19531,-3.44531 9.9375,-6.1875c8.15625,-8.15625 8.15625,-21.46875 0,-29.625c-4.07812,-4.07812 -9.42187,-6.1875 -14.8125,-6.1875c-5.39062,0 -10.73437,2.10938 -14.8125,6.1875c-2.74219,2.74219 -4.26562,5.90625 -6.1875,9.9375c-1.92187,4.03125 -3.91406,8.69531 -5.625,13.125c-0.14062,0.35156 -0.23437,0.58594 -0.375,0.9375c-0.14062,-0.35156 -0.23437,-0.58594 -0.375,-0.9375c-1.71094,-4.42969 -3.70312,-9.09375 -5.625,-13.125c-1.92187,-4.03125 -3.44531,-7.19531 -6.1875,-9.9375c-4.07812,-4.07812 -9.42187,-6.1875 -14.8125,-6.1875zM69,36c2.29688,0 4.59375,0.84375 6.375,2.625c0.1875,0.1875 2.22656,3.16406 3.9375,6.75c1.71094,3.58594 3.42188,7.94531 5.0625,12.1875c0.91406,2.34375 0.91406,2.41406 1.6875,4.5c-2.08594,-0.77344 -2.15625,-0.77344 -4.5,-1.6875c-4.24219,-1.64062 -8.60156,-3.35156 -12.1875,-5.0625c-3.58594,-1.71094 -6.5625,-3.75 -6.75,-3.9375c-3.5625,-3.5625 -3.5625,-9.1875 0,-12.75c1.78125,-1.78125 4.07813,-2.625 6.375,-2.625zM123,36c2.29688,0 4.59375,0.84375 6.375,2.625c3.5625,3.5625 3.5625,9.1875 0,12.75c-0.1875,0.1875 -3.16406,2.22656 -6.75,3.9375c-3.58594,1.71094 -7.94531,3.42188 -12.1875,5.0625c-2.34375,0.91406 -2.41406,0.91406 -4.5,1.6875c0.77344,-2.08594 0.77344,-2.15625 1.6875,-4.5c1.64063,-4.24219 3.35156,-8.60156 5.0625,-12.1875c1.71094,-3.58594 3.75,-6.5625 3.9375,-6.75c1.78125,-1.78125 4.07813,-2.625 6.375,-2.625zM42,78h108v84h-108zM81,96c-8.29687,0 -15,6.70313 -15,15c0,15.02344 30,33 30,33c0,0 30,-17.97656 30,-33c0,-8.29687 -6.70312,-15 -15,-15c-8.29687,0 -15,6.70313 -15,15c0,-8.29687 -6.70312,-15 -15,-15z"/></g></g></g></svg>
