<svg fill="#000000" xmlns="http://www.w3.org/2000/svg" viewBox="0 0 30 30" width="30px" height="30px"><path d="M 16.058594 3.0078125 C 15.190653 3.084874 14.450968 3.771261 14.347656 4.6660156 L 14.191406 6 L 4 6 L 4 24 L 12.083984 24 C 11.981744 25.009829 12.724549 25.942713 13.736328 26.060547 L 21.634766 26.986328 C 22.655899 27.106338 23.605626 26.35759 23.724609 25.335938 L 23.724609 25.333984 L 25.986328 6.0292969 C 26.106338 5.0081644 25.357587 4.0584373 24.335938 3.9394531 L 24.333984 3.9394531 L 16.4375 3.0136719 C 16.309783 2.9986618 16.182585 2.9968037 16.058594 3.0078125 z M 16.320312 5.0136719 L 23.986328 5.9121094 L 21.751953 24.986328 L 14.083984 24.087891 L 14.09375 24 L 15 24 C 16.105 24 17 23.105 17 22 L 17 8 C 17 7.3284119 16.667574 6.7376611 16.160156 6.375 L 16.320312 5.0136719 z M 10.5 10 C 12.43 10 14 11.57 14 13.5 C 14 15.43 12.43 17 10.5 17 C 8.57 17 7 15.43 7 13.5 C 7 11.57 8.57 10 10.5 10 z M 10.5 11.167969 L 10.5 11.75 L 9.3320312 11.75 L 9.3320312 12.332031 L 8.2636719 12.867188 C 8.2066719 13.070187 8.1679688 13.279 8.1679688 13.5 C 8.1679688 13.703 8.201 13.895031 8.25 14.082031 L 8.75 14.082031 L 9.3320312 14.666016 L 9.3320312 15.507812 C 9.6770313 15.708813 10.073 15.832031 10.5 15.832031 C 11.087 15.832031 11.617344 15.606047 12.027344 15.248047 L 11.667969 15.248047 L 11.083984 14.666016 L 11.083984 14.082031 L 11.667969 13.5 L 12.25 13.5 L 12.832031 13.5 C 12.832031 13.073 12.709766 12.677031 12.509766 12.332031 L 12.25 12.332031 L 11.667969 12.332031 L 11.667969 11.75 L 11.830078 11.587891 C 11.452078 11.324891 10.995 11.167969 10.5 11.167969 z"/></svg>