<svg fill="#000000" xmlns="http://www.w3.org/2000/svg" viewBox="0 0 32 32" width="32px" height="32px"><path d="M 6 3 L 6 29 L 16.171875 29 L 18.171875 27 L 8 27 L 8 5 L 18 5 L 18 11 L 24 11 L 24 16.140625 C 24.656 15.967625 25.344 15.966672 26 16.138672 L 26 9.5859375 L 19.414062 3 L 6 3 z M 20 6.4140625 L 22.585938 9 L 20 9 L 20 6.4140625 z M 11 13 L 11 15 L 21 15 L 21 13 L 11 13 z M 11 17 L 11 19 L 19.351562 19 C 19.721563 18.297 20.296 17.721563 21 17.351562 L 21 17 L 11 17 z M 25 18.001953 C 24.601867 18.001977 24.204059 18.122109 23.867188 18.365234 L 23.261719 18.802734 L 22.525391 18.921875 L 22.523438 18.921875 C 21.705133 19.055183 21.053713 19.705414 20.921875 20.527344 L 20.802734 21.261719 L 20.365234 21.867188 C 19.878984 22.540931 19.880489 23.459098 20.365234 24.132812 L 20.802734 24.740234 L 20.921875 25.476562 C 20.988481 25.885417 21.183251 26.253053 21.464844 26.535156 L 19 29 L 21 29 L 21 31 L 24.199219 27.800781 C 24.711186 28.035194 25.288828 28.03496 25.800781 27.800781 L 29 31 L 29 29 L 31 29 L 28.535156 26.535156 C 28.817259 26.254052 29.013828 25.887102 29.080078 25.476562 L 29.080078 25.474609 L 29.199219 24.740234 L 29.634766 24.134766 C 30.121016 23.461021 30.119511 22.540902 29.634766 21.867188 L 29.199219 21.261719 L 29.078125 20.525391 L 29.078125 20.523438 C 28.944961 19.705823 28.297641 19.054376 27.476562 18.921875 L 26.740234 18.802734 L 26.132812 18.365234 C 25.795955 18.122862 25.398133 18.001929 25 18.001953 z M 25 20.013672 L 25.953125 20.701172 L 27.113281 20.888672 L 27.298828 22.048828 L 27.986328 23 L 27.298828 23.953125 L 27.113281 25.113281 L 25.953125 25.298828 L 25 25.988281 L 24.048828 25.298828 L 22.888672 25.113281 L 22.701172 23.953125 L 22.013672 23 L 22.701172 22.048828 L 22.888672 20.888672 L 24.048828 20.701172 L 25 20.013672 z M 11 21 L 11 23 L 18 23 C 18 22.306 18.194547 21.618 18.560547 21 L 11 21 z"/></svg>