<?xml version="1.0"?>
<svg xmlns="http://www.w3.org/2000/svg" xmlns:xlink="http://www.w3.org/1999/xlink" version="1.1" viewBox="0 0 192 192" width="32px" height="32px"><g fill="none" fill-rule="nonzero" stroke="none" stroke-width="1" stroke-linecap="butt" stroke-linejoin="miter" stroke-miterlimit="10" stroke-dasharray="" stroke-dashoffset="0" font-family="none" font-weight="none" font-size="none" text-anchor="none" style="mix-blend-mode: normal"><path d="M0,192v-192h192v192z" fill="none"/><g fill="#3f3f3f"><g id="surface1"><path d="M96,42c-15.89062,0 -29.69531,7.42969 -39.5625,18.375c-0.82031,-0.09375 -1.54687,-0.375 -2.4375,-0.375c-13.19531,0 -24,10.80469 -24,24c-10.38281,6.32813 -18,17.01563 -18,30c0,19.80469 16.19531,36 36,36h96c19.80469,0 36,-16.19531 36,-36c0,-18.9375 -14.92969,-34.10156 -33.5625,-35.4375c-7.33594,-21.11719 -26.88281,-36.5625 -50.4375,-36.5625zM96,54c19.66406,0 36.07031,13.52344 40.6875,31.6875l1.125,4.6875l5.0625,-0.1875c1.26563,-0.07031 1.54688,-0.1875 1.125,-0.1875c13.3125,0 24,10.6875 24,24c0,13.3125 -10.6875,24 -24,24h-96c-13.3125,0 -24,-10.6875 -24,-24c0,-9.96094 6.04688,-18.46875 14.625,-22.125l4.125,-1.6875l-0.5625,-4.5c-0.11719,-0.98437 -0.1875,-1.54687 -0.1875,-1.6875c0,-6.70312 5.29688,-12 12,-12c0.84375,0 1.78125,0.11719 2.8125,0.375l3.75,0.9375l2.25,-3c7.6875,-9.86719 19.6875,-16.3125 33.1875,-16.3125zM78,90l-18,18l18,18v-12h36v12l18,-18l-18,-18v12h-36z"/></g></g></g></svg>
