<?xml version="1.0"?>
<svg xmlns="http://www.w3.org/2000/svg" xmlns:xlink="http://www.w3.org/1999/xlink" version="1.1" viewBox="0 0 172 172" width="32px" height="32px"><g fill="none" fill-rule="nonzero" stroke="none" stroke-width="1" stroke-linecap="butt" stroke-linejoin="miter" stroke-miterlimit="10" stroke-dasharray="" stroke-dashoffset="0" font-family="none" font-weight="none" font-size="none" text-anchor="none" style="mix-blend-mode: normal"><path d="M0,172v-172h172v172z" fill="none"/><g fill="#3f3f3f"><g id="surface1"><path d="M53.75,37.625c-14.82324,0 -26.875,12.05176 -26.875,26.875c0,14.82324 12.05176,26.875 26.875,26.875c14.82324,0 26.875,-12.05176 26.875,-26.875c0,-14.82324 -12.05176,-26.875 -26.875,-26.875zM53.75,91.375c-26.66504,0 -48.375,21.68896 -48.375,48.375h96.75c0,-5.27002 -0.96582,-10.37207 -2.51953,-15.11719c0.5459,-1.19678 1.13379,-2.39355 1.84766,-3.52734c5.24903,-8.20947 14.36133,-13.60547 24.85938,-13.60547c16.39795,0 29.5625,13.16455 29.5625,29.5625v2.6875h10.75v-2.6875c0,-15.6001 -8.96533,-29.24756 -22.00391,-35.94531c6.84473,-5.41699 11.25391,-13.81543 11.25391,-23.17969c0,-16.27197 -13.29053,-29.5625 -29.5625,-29.5625c-16.27197,0 -29.5625,13.29053 -29.5625,29.5625c0,9.44824 4.47217,17.93067 11.42188,23.34766c-5.56396,2.83447 -10.39307,6.78174 -14.10937,11.75781c-8.67139,-13.03857 -23.51562,-21.66797 -40.3125,-21.66797zM126.3125,59.125c10.45606,0 18.8125,8.35645 18.8125,18.8125c0,10.45606 -8.35644,18.8125 -18.8125,18.8125c-10.45605,0 -18.8125,-8.35644 -18.8125,-18.8125c0,-10.45605 8.35645,-18.8125 18.8125,-18.8125z"/></g></g></g></svg>
