<?xml version="1.0"?>
<svg xmlns="http://www.w3.org/2000/svg" xmlns:xlink="http://www.w3.org/1999/xlink" version="1.1" viewBox="0 0 192 192" width="32px" height="32px"><g fill="none" fill-rule="nonzero" stroke="none" stroke-width="1" stroke-linecap="butt" stroke-linejoin="miter" stroke-miterlimit="10" stroke-dasharray="" stroke-dashoffset="0" font-family="none" font-weight="none" font-size="none" text-anchor="none" style="mix-blend-mode: normal"><path d="M0,192v-192h192v192z" fill="none"/><g fill="#3f3f3f"><g id="surface1"><path d="M72,12c-23.13281,0 -42,18.86719 -42,42c0,14.46094 7.38281,27.30469 18.5625,34.875c-21.39844,9.1875 -36.5625,30.42188 -36.5625,55.125h12c0,-26.57812 21.42188,-48 48,-48c8.25,0 15.9375,2.15625 22.6875,5.8125c-6.65625,8.25 -10.6875,18.79688 -10.6875,30.1875c0,26.4375 21.5625,48 48,48c26.4375,0 48,-21.5625 48,-48c0,-26.4375 -21.5625,-48 -48,-48c-10.47656,0 -20.22656,3.44531 -28.125,9.1875c-2.64844,-1.66406 -5.53125,-3.07031 -8.4375,-4.3125c11.17969,-7.57031 18.5625,-20.41406 18.5625,-34.875c0,-23.13281 -18.86719,-42 -42,-42zM72,24c16.64063,0 30,13.35938 30,30c0,16.64063 -13.35937,30 -30,30c-16.64062,0 -30,-13.35937 -30,-30c0,-16.64062 13.35938,-30 30,-30zM132,96c19.94531,0 36,16.05469 36,36c0,19.94531 -16.05469,36 -36,36c-19.94531,0 -36,-16.05469 -36,-36c0,-19.94531 16.05469,-36 36,-36zM126,108v18h-18v12h18v18h12v-18h18v-12h-18v-18z"/></g></g></g></svg>
