<?xml version="1.0" encoding="UTF-8"?>
<svg xmlns="http://www.w3.org/2000/svg" xmlns:xlink="http://www.w3.org/1999/xlink" width="16pt" height="16pt" viewBox="0 0 16 16" version="1.1">
<g id="surface15833346">
<path style=" stroke:none;fill-rule:nonzero;fill:rgb(24.705882%,24.705882%,24.705882%);fill-opacity:1;" d="M 4 1.296875 L 3.640625 1.640625 L 2.140625 3.140625 L 1.796875 3.5 L 2.140625 3.859375 L 7.640625 9.359375 L 8 9.703125 L 8.359375 9.359375 L 13.859375 3.859375 L 14.203125 3.5 L 13.859375 3.140625 L 12.359375 1.640625 L 12 1.296875 L 11.640625 1.640625 L 8 5.28125 L 4.359375 1.640625 Z M 4 2.71875 L 7.640625 6.359375 L 8 6.703125 L 8.359375 6.359375 L 12 2.71875 L 12.78125 3.5 L 8 8.28125 L 3.21875 3.5 Z M 4 6.796875 L 3.640625 7.140625 L 2.140625 8.640625 L 1.796875 9 L 2.140625 9.359375 L 7.640625 14.859375 L 8 15.203125 L 8.359375 14.859375 L 8.8125 14.40625 C 9.542969 15.375 10.695312 16 12 16 C 14.203125 16 16 14.203125 16 12 C 16 10.335938 14.96875 8.898438 13.515625 8.296875 L 12.359375 7.140625 L 12 6.796875 L 11.640625 7.140625 L 10.5 8.296875 C 9.507812 8.703125 8.703125 9.507812 8.296875 10.5 L 8 10.78125 L 4.359375 7.140625 Z M 4 8.21875 L 7.640625 11.859375 L 8 12.203125 C 8.023438 12.65625 8.132812 13.082031 8.296875 13.484375 L 8 13.78125 L 3.21875 9 Z M 12 9 C 13.664062 9 15 10.335938 15 12 C 15 13.664062 13.664062 15 12 15 C 10.335938 15 9 13.664062 9 12 C 9 10.335938 10.335938 9 12 9 Z M 10.5 10 L 10.5 10.5 L 10 10.5 L 10 11.5 L 10.5 11.5 L 10.5 12.5 L 10 12.5 L 10 13.5 L 10.5 13.5 L 10.5 14 L 11.5 14 L 11.5 13.5 L 12.5 13.5 L 12.5 14 L 13.5 14 L 13.5 13.5 L 14 13.5 L 14 12.5 L 13.5 12.5 L 13.5 11.5 L 14 11.5 L 14 10.5 L 13.5 10.5 L 13.5 10 L 12.5 10 L 12.5 10.5 L 11.5 10.5 L 11.5 10 Z M 11.5 11.5 L 12.5 11.5 L 12.5 12.5 L 11.5 12.5 Z M 11.5 11.5 "/>
</g>
</svg>
