<svg fill="#000000" xmlns="http://www.w3.org/2000/svg" viewBox="0 0 32 32" width="32px" height="32px"><path d="M 3 6 L 3 25 L 13 25 C 14.103 25 15 25.897 15 27 L 17 27 C 17 25.897 17.897 25 19 25 L 29 25 L 29 6 L 19 6 C 17.807 6 16.733 6.5254219 16 7.3574219 C 15.267 6.5254219 14.193 6 13 6 L 3 6 z M 5 8 L 13 8 C 14.103 8 15 8.897 15 10 L 17 10 C 17 8.897 17.897 8 19 8 L 27 8 L 27 23 L 19 23 C 17.807 23 16.733 23.525422 16 24.357422 C 15.267 23.525422 14.193 23 13 23 L 5 23 L 5 8 z M 21 11 L 21 12.160156 C 19.899978 12.367953 19 13.227445 19 14.382812 C 19 15.138243 19.43107 15.834697 20.107422 16.171875 L 22.998047 17.617188 C 22.997234 17.838456 22.838773 18 22.617188 18 L 21.382812 18 C 21.16066 18 21 17.83934 21 17.617188 L 21 17 L 19 17 L 19 17.617188 C 19 18.772554 19.899978 19.632047 21 19.839844 L 21 21 L 23 21 L 23 19.839844 C 24.100022 19.632047 25 18.772555 25 17.617188 C 25 16.861757 24.568804 16.166256 23.894531 15.828125 L 21.001953 14.380859 C 21.003573 14.160475 21.161793 14 21.382812 14 L 22.617188 14 C 22.839339 14 23 14.16066 23 14.382812 L 23 15 L 25 15 L 25 14.382812 C 25 13.227445 24.100022 12.367953 23 12.160156 L 23 11 L 21 11 z M 15 12 L 15 14 L 17 14 L 17 12 L 15 12 z M 15 16 L 15 18 L 17 18 L 17 16 L 15 16 z M 15 20 L 15 22 L 17 22 L 17 20 L 15 20 z"/></svg>