<svg fill="#000000" xmlns="http://www.w3.org/2000/svg" viewBox="0 0 32 32" width="32px" height="32px"><path d="M 5 5 L 5 28 L 14 28 L 14 5 Z M 7 7 L 12 7 L 12 12 L 7 12 Z M 8 8 L 8 11 L 11 11 L 11 8 Z M 16 8 L 16 10 L 21 10 L 21 8 Z M 23 8 L 23 10 L 28 10 L 28 8 Z M 7 14 L 12 14 L 12 19 L 7 19 Z M 9.5 15 C 8.671875 15 8 15.671875 8 16.5 C 8 17.328125 8.671875 18 9.5 18 C 10.328125 18 11 17.328125 11 16.5 C 11 15.671875 10.328125 15 9.5 15 Z M 16 15 L 16 17 L 21 17 L 21 15 Z M 23 15 L 23 17 L 28 17 L 28 15 Z M 7 21 L 12 21 L 12 26 L 7 26 Z M 9.5 22 L 8 25 L 11 25 Z M 16 22 L 16 24 L 21 24 L 21 22 Z M 23 22 L 23 24 L 28 24 L 28 22 Z"/></svg>