<?xml version="1.0" encoding="UTF-8"?>
<svg xmlns="http://www.w3.org/2000/svg" xmlns:xlink="http://www.w3.org/1999/xlink" width="32pt" height="32pt" viewBox="0 0 32 32" version="1.1">
<g id="surface15812682">
<path style=" stroke:none;fill-rule:nonzero;fill:rgb(24.705882%,24.705882%,24.705882%);fill-opacity:1;" d="M 4 5 L 4 27 L 28 27 L 28 5 Z M 6 7 L 26 7 L 26 25 L 6 25 Z M 8 10 L 8 12 L 10 12 L 10 10 Z M 11 10 L 11 12 L 15 12 L 15 10 Z M 17 10 L 17 12 L 19 12 L 19 10 Z M 20 10 L 20 12 L 24 12 L 24 10 Z M 8 15 L 8 17 L 10 17 L 10 15 Z M 11 15 L 11 17 L 15 17 L 15 15 Z M 17 15 L 17 17 L 19 17 L 19 15 Z M 20 15 L 20 17 L 24 17 L 24 15 Z M 8 20 L 8 22 L 10 22 L 10 20 Z M 11 20 L 11 22 L 15 22 L 15 20 Z M 17 20 L 17 22 L 19 22 L 19 20 Z M 20 20 L 20 22 L 24 22 L 24 20 Z M 20 20 "/>
</g>
</svg>
