<?xml version="1.0" encoding="UTF-8"?>
<svg xmlns="http://www.w3.org/2000/svg" xmlns:xlink="http://www.w3.org/1999/xlink" width="32pt" height="32pt" viewBox="0 0 32 32" version="1.1">
<g id="surface15819853">
<path style=" stroke:none;fill-rule:nonzero;fill:rgb(24.705882%,24.705882%,24.705882%);fill-opacity:1;" d="M 9.5 3 C 5.363281 3 2 6.402344 2 10.5 C 2 11.929688 2.652344 13.152344 3.253906 14.046875 C 3.851562 14.945312 4.464844 15.546875 4.464844 15.546875 L 7.273438 18.355469 L 8.6875 16.9375 L 5.871094 14.125 L 5.867188 14.121094 C 5.867188 14.121094 5.398438 13.65625 4.914062 12.933594 C 4.429688 12.214844 4 11.273438 4 10.5 C 4 7.496094 6.457031 5 9.5 5 C 12.488281 5 15.253906 7.917969 15.253906 7.917969 L 16 8.75 L 16.746094 7.917969 C 16.746094 7.917969 19.511719 5 22.5 5 C 25.542969 5 28 7.496094 28 10.5 L 28 11 L 30 11 L 30 10.5 C 30 6.402344 26.636719 3 22.5 3 C 19.066406 3 16.855469 5.058594 16 5.929688 C 15.144531 5.058594 12.933594 3 9.5 3 Z M 22.410156 9.984375 L 21.703125 10.691406 L 18.367188 14.03125 L 14.46875 14.03125 C 14.199219 14.03125 13.941406 14.140625 13.753906 14.332031 L 10.273438 17.878906 C 8.941406 19.210938 8.839844 20.816406 9.207031 21.863281 C 9.578125 22.914062 10.296875 23.5625 10.296875 23.5625 C 10.328125 23.59375 12.441406 25.710938 14.515625 27.78125 C 15.796875 29.0625 17.386719 29.148438 18.433594 28.804688 C 19.484375 28.464844 20.160156 27.792969 20.160156 27.792969 C 20.164062 27.789062 20.167969 27.785156 20.171875 27.777344 L 28.6875 19.261719 L 27.273438 17.847656 L 18.769531 26.351562 C 18.769531 26.351562 18.367188 26.722656 17.816406 26.902344 C 17.265625 27.085938 16.734375 27.167969 15.929688 26.363281 C 13.84375 24.28125 11.683594 22.121094 11.683594 22.121094 C 11.675781 22.113281 11.667969 22.105469 11.65625 22.09375 C 11.65625 22.09375 11.277344 21.722656 11.09375 21.203125 C 10.914062 20.683594 10.8125 20.171875 11.683594 19.292969 C 11.6875 19.292969 11.691406 19.289062 11.691406 19.285156 L 14.886719 16.03125 L 16.363281 16.03125 L 15.222656 17.175781 L 14.515625 17.882812 L 15.929688 19.296875 L 23.824219 11.402344 Z M 25.53125 11.105469 L 18.050781 18.585938 L 19.464844 20 L 26.945312 12.519531 Z M 26.652344 14.226562 L 20.171875 20.707031 L 21.585938 22.121094 L 28.066406 15.640625 Z M 26.652344 14.226562 "/>
</g>
</svg>
