<?xml version="1.0" encoding="utf-8"?>
<!-- Generator: Adobe Illustrator 24.3.0, SVG Export Plug-In . SVG Version: 6.00 Build 0)  -->
<svg version="1.1" id="Layer_1" xmlns="http://www.w3.org/2000/svg" xmlns:xlink="http://www.w3.org/1999/xlink" x="0px" y="0px"
	 width="48px" height="48px" viewBox="0 0 48 48" enable-background="new 0 0 48 48" xml:space="preserve">
<rect fill="#0078D4" width="48" height="48"/>
<g>
	<path fill="#FFFFFF" d="M25.5,25.5c-0.68-0.508-1.387-0.885-2.121-1.131S21.852,24,21,24c-1.047,0-2.027,0.193-2.941,0.58
		s-1.709,0.918-2.385,1.594s-1.207,1.471-1.594,2.385S13.5,30.453,13.5,31.5H12c0-0.945,0.137-1.854,0.41-2.725
		s0.664-1.674,1.172-2.408s1.119-1.385,1.834-1.951s1.518-1.014,2.408-1.342c-0.43-0.266-0.818-0.586-1.166-0.961
		s-0.645-0.783-0.891-1.225s-0.436-0.906-0.568-1.395S15,18.508,15,18c0-0.828,0.158-1.605,0.475-2.332s0.746-1.361,1.289-1.904
		s1.178-0.973,1.904-1.289S20.172,12,21,12s1.605,0.158,2.332,0.475s1.361,0.746,1.904,1.289s0.973,1.178,1.289,1.904
		S27,17.172,27,18c0,0.508-0.066,1.006-0.199,1.494s-0.322,0.953-0.568,1.395s-0.543,0.85-0.891,1.225s-0.736,0.695-1.166,0.961
		c0.516,0.18,0.99,0.408,1.424,0.686s0.857,0.596,1.271,0.955c-0.258,0.086-0.498,0.195-0.721,0.328S25.711,25.328,25.5,25.5z
		 M25.5,18c0-0.617-0.119-1.197-0.357-1.74s-0.562-1.02-0.973-1.43s-0.887-0.734-1.43-0.973S21.617,13.5,21,13.5
		s-1.197,0.119-1.74,0.357s-1.02,0.562-1.43,0.973s-0.734,0.887-0.973,1.43S16.5,17.383,16.5,18s0.119,1.197,0.357,1.74
		s0.562,1.02,0.973,1.43s0.887,0.734,1.43,0.973S20.383,22.5,21,22.5s1.197-0.119,1.74-0.357s1.02-0.562,1.43-0.973
		s0.734-0.887,0.973-1.43S25.5,18.617,25.5,18z M36,29.391c0,0.422-0.078,0.822-0.234,1.201s-0.383,0.717-0.68,1.014L30.75,35.93
		l-4.336-4.324c-0.297-0.297-0.523-0.635-0.68-1.014S25.5,29.812,25.5,29.391c0-0.43,0.082-0.836,0.246-1.219
		s0.387-0.717,0.668-1.002s0.611-0.51,0.99-0.674s0.787-0.246,1.225-0.246c0.391,0,0.771,0.068,1.143,0.205s0.697,0.342,0.979,0.615
		c0.297-0.273,0.625-0.479,0.984-0.615s0.738-0.205,1.137-0.205c0.438,0,0.846,0.082,1.225,0.246s0.709,0.389,0.99,0.674
		s0.504,0.619,0.668,1.002S36,28.961,36,29.391z M34.5,29.391c0-0.227-0.043-0.439-0.129-0.639s-0.203-0.373-0.352-0.521
		s-0.322-0.266-0.521-0.352s-0.412-0.129-0.639-0.129c-0.445,0-0.828,0.16-1.148,0.48l-0.961,0.961l-0.961-0.961
		c-0.156-0.156-0.334-0.275-0.533-0.357s-0.404-0.123-0.615-0.123c-0.227,0-0.439,0.043-0.639,0.129s-0.373,0.203-0.521,0.352
		s-0.266,0.322-0.352,0.521S27,29.164,27,29.391c0,0.445,0.16,0.828,0.48,1.148l3.27,3.27l3.27-3.27
		C34.34,30.219,34.5,29.836,34.5,29.391z"/>
</g>
</svg>
